<svg width="25" height="24" viewBox="0 0 25 24" fill="none" xmlns="http://www.w3.org/2000/svg">
<path d="M13.6417 18.606C13.5415 18.1977 13.4484 17.7964 13.341 17.3881C13.0833 16.3277 12.7397 15.296 12.3244 14.2858C12.1812 13.9419 11.9951 13.6267 11.6658 13.4118C11.3937 13.2398 11.0715 13.1395 10.7494 13.1395C9.68263 13.0965 8.60873 13.0965 7.54199 13.075L2.38011 12.989C2.17965 12.9819 1.97919 12.9962 1.77873 13.0177C1.4852 13.0535 1.32769 13.2541 1.37781 13.555C1.42792 13.7915 1.50668 14.0136 1.59975 14.2357L2.80251 17.3737C2.84547 17.4812 2.87411 17.5099 2.9815 17.4382C3.28935 17.2304 3.61152 17.037 3.93369 16.8507C4.01244 16.8149 4.04824 16.7289 4.02676 16.6501C3.8263 15.5898 3.62584 14.5294 3.43253 13.4691C3.41822 13.4189 3.36094 13.3186 3.46833 13.3114C3.57572 13.3043 3.69027 13.2398 3.72607 13.4189C3.95516 14.6584 4.19142 15.8907 4.42768 17.1301C4.52791 17.6317 4.61382 18.1332 4.71405 18.6347C4.81428 19.1362 5.05054 19.3297 5.55885 19.4156C5.71636 19.4371 5.87386 19.4443 6.03137 19.4443H11.1145C11.7016 19.4443 12.2958 19.4228 12.8828 19.43C13.4699 19.4371 13.7563 19.2007 14.0999 18.8855L20.4932 13.0105C20.5576 12.9532 20.5863 12.8672 20.5863 12.7813C20.6221 12.2869 20.6579 11.7926 20.6865 11.2982C20.6937 11.2266 20.6865 11.1621 20.7438 11.1119C21.2163 10.6248 21.6888 10.1304 22.1828 9.62888C22.3045 9.95845 22.3976 10.288 22.4692 10.6319C22.5265 10.8827 22.5694 11.1263 22.5193 11.377C22.4549 11.6851 22.2974 11.9717 22.0754 12.1938C21.1948 13.161 20.3214 14.1425 19.3907 15.0668C19.2833 15.1599 19.2188 15.296 19.2188 15.4393C19.2332 15.776 19.09 16.0125 18.8394 16.2274C18.5888 16.4423 18.3168 16.7361 18.0662 16.994C18.0018 17.0728 17.8944 17.1015 17.7941 17.08L17.114 16.9725C17.0353 16.951 16.9493 16.9725 16.8921 17.0298C16.0687 17.7535 15.2383 18.4771 14.4436 19.2293C14.0785 19.5876 13.5845 19.7882 13.069 19.781C10.6348 19.7882 8.20064 19.7739 5.76647 19.7667C5.61613 19.7595 5.47294 19.738 5.32976 19.7022C4.8286 19.5732 4.52791 19.2508 4.42768 18.7422C4.32745 18.2335 4.24154 17.8108 4.14847 17.3236L3.59004 17.6961C3.3681 17.8394 3.14616 17.9756 2.93138 18.126C2.86695 18.169 2.83115 18.1833 2.79535 18.083L1.14155 13.7342C1.03416 13.4332 0.969726 13.1323 1.17019 12.8386C1.26326 12.6881 1.39929 12.5735 1.55679 12.4947L3.38242 11.6636C3.46117 11.6421 3.54708 11.6349 3.62584 11.6421C4.95031 11.6636 6.28195 11.6779 7.60642 11.7066C9.06692 11.7353 10.5346 11.7353 11.9951 11.7854C12.754 11.8141 13.2838 12.1436 13.5916 12.8458C13.9782 13.7342 14.2503 14.6512 14.508 15.5754L14.7514 16.4495L19.1831 12.5807L19.1616 12.552L14.8803 15.9337C14.7729 15.5611 14.6727 15.2029 14.5724 14.8447C14.3577 14.0924 14.0999 13.3544 13.7992 12.6308C13.6059 12.158 13.3124 11.7926 12.8256 11.6063C12.532 11.4988 12.2242 11.4917 11.9163 11.4845L8.95237 11.4415L4.20574 11.3627C4.16994 11.3627 4.14131 11.3484 4.11267 11.3269L4.69258 11.0618L13.5916 7.00667C14.0069 6.82039 14.4579 6.72725 14.9161 6.72008C16.842 6.66277 18.775 6.60545 20.7008 6.61978C20.9299 6.61978 21.1519 6.64844 21.3738 6.69859C21.6459 6.75591 21.8678 6.93502 21.9823 7.18578C22.19 7.59416 22.2974 8.03119 22.4119 8.46823C22.4549 8.63301 22.4191 8.74048 22.2902 8.86228C21.0015 10.0158 19.7272 11.1764 18.4456 12.3299C18.4098 12.3586 18.3884 12.3944 18.374 12.4374L20.3214 10.94C20.2927 11.2839 20.2713 11.592 20.2426 11.9C20.2426 11.9215 20.2283 11.9502 20.2355 11.9717C20.2784 12.3442 20.078 12.5807 19.8202 12.8171C17.8013 14.7085 15.7895 16.6071 13.7778 18.5057C13.742 18.5487 13.699 18.5845 13.6417 18.606ZM14.3004 11.5132L14.3219 11.5418L20.8082 6.93502L20.7295 6.92069C18.8824 6.92069 17.0353 6.91353 15.1881 6.96368C14.6942 6.97801 14.2073 7.02816 13.7491 7.24309L6.90481 10.4027C6.84037 10.417 6.7831 10.4528 6.74014 10.503L6.89049 10.4456C7.89279 10.0373 8.88794 9.63605 9.88309 9.2205C9.96184 9.18468 10.0478 9.19185 10.1265 9.22767C10.6133 9.42111 11.1574 9.42111 11.6514 9.23483C12.6466 8.85511 13.6489 8.49689 14.687 8.26762C15.2311 8.14583 15.7752 8.09567 16.3122 8.33927C16.8491 8.58286 17.1856 8.76197 17.7082 8.70466L14.3004 11.5132Z" fill="#8E97A2"/>
<path d="M16.9992 17.3951V19.0859L18.3881 18.5558L21.6957 17.2948C21.7888 17.2733 21.8604 17.1945 21.8747 17.1014C22.1754 15.8977 22.1969 14.6439 21.9392 13.4331C21.9034 13.2612 21.9034 13.2612 21.7602 13.3686C21.3593 13.6624 20.9583 13.9561 20.5359 14.2284L22.4117 12.1578C23.7719 15.7114 22.5835 20.8054 17.9801 23.0837C13.7274 25.1829 8.93782 23.4635 6.74707 20.0603H7.6921C7.75654 20.0603 7.77801 20.1033 7.80665 20.1463C9.01658 21.6293 10.5558 22.5966 12.4316 22.9906C14.3073 23.3847 15.9826 23.1411 17.6436 22.3386L17.708 22.2956C17.665 22.2741 17.6149 22.267 17.572 22.2741H15.0089C14.7512 22.2741 14.5006 22.1738 14.3073 21.9947C14.0353 21.7583 13.799 21.4789 13.5413 21.221C13.5055 21.1851 13.4912 21.135 13.4983 21.0848C13.4983 20.7768 13.5055 20.4759 13.4983 20.1749C13.4983 20.0818 13.5341 20.0531 13.6129 20.0317C14.0066 19.9528 14.3288 19.7451 14.6152 19.4728C15.3669 18.7635 16.1473 18.0829 16.9276 17.4023C16.942 17.3808 16.9777 17.3736 16.9992 17.3951Z" fill="#8E97A2"/>
<path d="M9.26694 19.0219C8.25032 19.0219 7.22653 19.0004 6.20991 19.0219C5.65864 19.0362 5.07873 18.592 4.9785 17.9759C4.75657 16.6648 4.52031 15.3608 4.28405 14.0497C4.27689 14.0211 4.27689 13.9853 4.27689 13.9566C4.24109 13.5411 4.26973 13.5052 4.67781 13.5052H10.1404C10.391 13.4981 10.6415 13.5267 10.8849 13.584C11.293 13.6843 11.6224 13.9781 11.7727 14.3721C12.145 15.239 12.4099 16.1489 12.6605 17.0588C12.7965 17.546 12.9182 18.0404 13.0542 18.5276C13.09 18.6279 13.0542 18.7497 12.9612 18.807C12.8036 18.9431 12.596 19.0219 12.3812 19.0148C11.3431 19.0148 10.305 19.0219 9.26694 19.0219ZM9.00205 17.9759H10.9565C11.2214 17.9902 11.4434 17.7825 11.4577 17.5174C11.4577 17.4815 11.4577 17.4386 11.4505 17.4027C11.3145 16.586 11.1713 15.7764 11.0281 14.9668C10.9422 14.4868 10.6559 14.2575 10.1619 14.2575H6.46048C6.08104 14.2718 5.86626 14.5154 5.93069 14.888L6.36025 17.3311C6.43185 17.7323 6.72538 17.9759 7.13346 17.9831L9.00205 17.9759Z" fill="#8E97A2"/>
<path d="M13.9355 6.88535L16.8351 1.62659L17.9018 6.63459" fill="#8E97A2"/>
<path d="M17.8516 6.65585L21.1091 0L21.9324 7.10005" fill="#8E97A2"/>
</svg>
