<svg width="24" height="24" viewBox="0 0 24 24" fill="none" xmlns="http://www.w3.org/2000/svg">
<path d="M4.91332 20.391H15.0035L15.0034 20.3913H15.2737C15.5441 20.3913 15.7505 20.17 15.7505 19.9106C15.7505 19.6457 15.5348 19.4299 15.2699 19.4299H4.91332C3.14847 19.4299 1.71117 17.9926 1.71117 16.2278C1.71117 14.4629 3.14847 13.0256 4.91332 13.0256H7.90799C8.17293 13.0256 8.38865 12.8099 8.38865 12.545C8.38865 12.2801 8.17293 12.0643 7.90799 12.0643H4.91332C2.61874 12.0643 0.75 13.9331 0.75 16.2277C0.75 18.5222 2.61863 20.391 4.91332 20.391Z" fill="#8E97A2" stroke="#8E97A2" stroke-width="0.5"/>
<path d="M16.1146 13.0242H19.0862C21.3807 13.0242 23.2496 11.1593 23.2496 8.86059C23.2496 6.56601 21.3809 4.69727 19.0862 4.69727H8.72968C8.46475 4.69727 8.24902 4.91299 8.24902 5.17792C8.24902 5.44285 8.46475 5.65858 8.72968 5.65858H19.0862C20.8511 5.65858 22.2884 7.09588 22.2884 8.86073C22.2884 10.6256 20.8511 12.0629 19.0862 12.0629H16.1146C15.8497 12.0629 15.634 12.2786 15.634 12.5435C15.634 12.8085 15.8497 13.0242 16.1146 13.0242Z" fill="#8E97A2" stroke="#8E97A2" stroke-width="0.5"/>
<circle cx="3.62729" cy="5.56284" r="2.56284" fill="#8E97A2"/>
<circle cx="11.8841" cy="13.0239" r="2.56284" fill="#8E97A2"/>
<circle cx="19.3177" cy="19.3012" r="2.56284" fill="#8E97A2"/>
</svg>
