<svg width="13" height="24" viewBox="0 0 13 24" fill="none" xmlns="http://www.w3.org/2000/svg">
<path d="M12.0808 14.3515L11.4182 9.68891C11.1434 7.91921 9.56766 6.48083 7.89494 6.48083H7.66868C8.34282 6.11897 8.87683 5.54235 9.18597 4.84246C9.49511 4.14257 9.56168 3.35949 9.37512 2.61746C9.18856 1.87542 8.75955 1.21694 8.15616 0.746474C7.55277 0.276009 6.80956 0.0205078 6.04443 0.0205078C5.27931 0.0205078 4.53609 0.276009 3.9327 0.746474C3.32931 1.21694 2.90031 1.87542 2.71374 2.61746C2.52718 3.35949 2.59376 4.14257 2.9029 4.84246C3.21204 5.54235 3.74604 6.11897 4.42019 6.48083H4.19393C2.5212 6.48083 0.945443 7.91921 0.670695 9.69699L0.00806919 14.3515C-0.0152876 14.5023 0.00683068 14.6567 0.0716006 14.7949C0.136371 14.933 0.240853 15.0488 0.371706 15.1273L2.13332 16.2182L2.99797 22.2869C3.12726 23.2485 3.9515 24 4.86463 24H7.22423C8.13736 24 8.9616 23.2485 9.0909 22.2869L9.95554 16.2182L11.7172 15.1273C11.848 15.0488 11.9525 14.933 12.0173 14.7949C12.082 14.6567 12.1042 14.5023 12.0808 14.3515ZM6.04443 1.55962C6.41943 1.55642 6.78692 1.66479 7.10017 1.87097C7.41342 2.07715 7.6583 2.37182 7.80366 2.71751C7.94902 3.06321 7.98831 3.44432 7.91652 3.8124C7.84474 4.18049 7.66513 4.51891 7.40052 4.78465C7.13592 5.0504 6.79827 5.23146 6.4305 5.30483C6.06273 5.3782 5.68145 5.34055 5.33513 5.19667C4.98882 5.0528 4.6931 4.8092 4.48558 4.49684C4.27805 4.18447 4.1681 3.81746 4.16969 3.44245C4.16968 2.94449 4.36694 2.4668 4.71829 2.11393C5.06965 1.76107 5.54648 1.56176 6.04443 1.55962ZM8.82423 15.0869C8.72625 15.1453 8.64268 15.225 8.57973 15.3202C8.51678 15.4153 8.47606 15.5234 8.46059 15.6364L7.53938 22.0768C7.51514 22.2788 7.32928 22.4323 7.22423 22.4323H4.86463C4.75958 22.4323 4.57373 22.2788 4.54948 22.0768L3.62827 15.6364C3.61281 15.5234 3.57209 15.4153 3.50914 15.3202C3.44619 15.225 3.36262 15.1453 3.26463 15.0869L1.62423 14.0687L2.21413 9.92325C2.36766 8.90507 3.27272 8.04043 4.19393 8.04043H7.89494C8.81615 8.04043 9.7212 8.90507 9.87473 9.91517L10.4646 14.0687L8.82423 15.0869Z" fill="#8E97A2"/>
</svg>
