<?xml version="1.0" encoding="utf-8"?>
<!-- Generator: Adobe Illustrator 22.1.0, SVG Export Plug-In . SVG Version: 6.00 Build 0)  -->
<svg version="1.1" id="Layer_1" xmlns="http://www.w3.org/2000/svg" xmlns:xlink="http://www.w3.org/1999/xlink" x="0px" y="0px"
	 viewBox="0 0 1334.4 335" style="enable-background:new 0 0 1334.4 335;" xml:space="preserve">
<style type="text/css">
	.st0{enable-background:new	;}
	.st1{fill:#39C475;}
</style>
<title>3-edit</title>
<path d="M176,259.7c-1.4-5.7-2.7-11.3-4.2-17c-3.6-14.8-8.4-29.2-14.2-43.3c-2-4.8-4.6-9.2-9.2-12.2c-3.8-2.4-8.3-3.8-12.8-3.8
	c-14.9-0.6-29.9-0.6-44.8-0.9l-72.1-1.2c-2.8-0.1-5.6,0.1-8.4,0.4c-4.1,0.5-6.3,3.3-5.6,7.5c0.7,3.3,1.8,6.4,3.1,9.5l16.8,43.8
	c0.6,1.5,1,1.9,2.5,0.9c4.3-2.9,8.8-5.6,13.3-8.2c1.1-0.5,1.6-1.7,1.3-2.8c-2.8-14.8-5.6-29.6-8.3-44.4c-0.2-0.7-1-2.1,0.5-2.2
	s3.1-1,3.6,1.5c3.2,17.3,6.5,34.5,9.8,51.8c1.4,7,2.6,14,4,21s4.7,9.7,11.8,10.9c2.2,0.3,4.4,0.4,6.6,0.4h71
	c8.2,0,16.5-0.3,24.7-0.2s12.2-3.2,17-7.6l89.3-82c0.9-0.8,1.3-2,1.3-3.2c0.5-6.9,1-13.8,1.4-20.7c0.1-1,0-1.9,0.8-2.6
	c6.6-6.8,13.2-13.7,20.1-20.7c1.7,4.6,3,9.2,4,14c0.8,3.5,1.4,6.9,0.7,10.4c-0.9,4.3-3.1,8.3-6.2,11.4
	c-12.3,13.5-24.5,27.2-37.5,40.1c-1.5,1.3-2.4,3.2-2.4,5.2c0.2,4.7-1.8,8-5.3,11s-7.3,7.1-10.8,10.7c-0.9,1.1-2.4,1.5-3.8,1.2
	l-9.5-1.5c-1.1-0.3-2.3,0-3.1,0.8c-11.5,10.1-23.1,20.2-34.2,30.7c-5.1,5-12,7.8-19.2,7.7c-34,0.1-68-0.1-102-0.2
	c-2.1-0.1-4.1-0.4-6.1-0.9c-7-1.8-11.2-6.3-12.6-13.4s-2.6-13-3.9-19.8l-7.8,5.2c-3.1,2-6.2,3.9-9.2,6c-0.9,0.6-1.4,0.8-1.9-0.6
	L1.4,191.7c-1.5-4.2-2.4-8.4,0.4-12.5c1.3-2.1,3.2-3.7,5.4-4.8l25.5-11.6c1.1-0.3,2.3-0.4,3.4-0.3c18.5,0.3,37.1,0.5,55.6,0.9
	c20.4,0.4,40.9,0.4,61.3,1.1c10.6,0.4,18,5,22.3,14.8c5.4,12.4,9.2,25.2,12.8,38.1l3.4,12.2l61.9-54l-0.3-0.4l-59.8,47.2
	c-1.5-5.2-2.9-10.2-4.3-15.2c-3-10.5-6.6-20.8-10.8-30.9c-2.7-6.6-6.8-11.7-13.6-14.3c-4.1-1.5-8.4-1.6-12.7-1.7l-41.4-0.6
	l-66.3-1.1c-0.5,0-0.9-0.2-1.3-0.5l8.1-3.7l124.3-56.6c5.8-2.6,12.1-3.9,18.5-4c26.9-0.8,53.9-1.6,80.8-1.4c3.2,0,6.3,0.4,9.4,1.1
	c3.8,0.8,6.9,3.3,8.5,6.8c2.9,5.7,4.4,11.8,6,17.9c0.6,2.3,0.1,3.8-1.7,5.5c-18,16.1-35.8,32.3-53.7,48.4c-0.5,0.4-0.8,0.9-1,1.5
	l27.2-20.9c-0.4,4.8-0.7,9.1-1.1,13.4c0,0.3-0.2,0.7-0.1,1c0.6,5.2-2.2,8.5-5.8,11.8c-28.2,26.4-56.3,52.9-84.4,79.4
	C177.4,258.9,176.8,259.4,176,259.7z M185.2,160.7l0.3,0.4l90.6-64.3l-1.1-0.2c-25.8,0-51.6-0.1-77.4,0.6
	c-6.9,0.2-13.7,0.9-20.1,3.9l-95.6,44.1c-0.9,0.2-1.7,0.7-2.3,1.4l2.1-0.8c14-5.7,27.9-11.3,41.8-17.1c1.1-0.5,2.3-0.4,3.4,0.1
	c6.8,2.7,14.4,2.7,21.3,0.1c13.9-5.3,27.9-10.3,42.4-13.5c7.6-1.7,15.2-2.4,22.7,1s12.2,5.9,19.5,5.1L185.2,160.7z"/>
<path d="M222.9,242.8v23.6l19.4-7.4l46.2-17.6c1.3-0.3,2.3-1.4,2.5-2.7c4.2-16.8,4.5-34.3,0.9-51.2c-0.5-2.4-0.5-2.4-2.5-0.9
	c-5.6,4.1-11.2,8.2-17.1,12l26.2-28.9c19,49.6,2.4,120.7-61.9,152.5c-59.4,29.3-126.3,5.3-156.9-42.2h13.2c0.9,0,1.2,0.6,1.6,1.2
	c16.9,20.7,38.4,34.2,64.6,39.7s49.6,2.1,72.8-9.1l0.9-0.6c-0.6-0.3-1.3-0.4-1.9-0.3h-35.8c-3.6,0-7.1-1.4-9.8-3.9
	c-3.8-3.3-7.1-7.2-10.7-10.8c-0.5-0.5-0.7-1.2-0.6-1.9c0-4.3,0.1-8.5,0-12.7c0-1.3,0.5-1.7,1.6-2c5.5-1.1,10-4,14-7.8
	c10.5-9.9,21.4-19.4,32.3-28.9C222.1,242.6,222.6,242.5,222.9,242.8C222.9,242.8,222.9,242.8,222.9,242.8z"/>
<path d="M114.9,265.5c-14.2,0-28.5-0.3-42.7,0c-7.7,0.2-15.8-6-17.2-14.6c-3.1-18.3-6.4-36.5-9.7-54.8c-0.1-0.4-0.1-0.9-0.1-1.3
	c-0.5-5.8-0.1-6.3,5.6-6.3h76.3c3.5-0.1,7,0.3,10.4,1.1c5.7,1.4,10.3,5.5,12.4,11c5.2,12.1,8.9,24.8,12.4,37.5
	c1.9,6.8,3.6,13.7,5.5,20.5c0.5,1.4,0,3.1-1.3,3.9c-2.2,1.9-5.1,3-8.1,2.9C143.9,265.4,129.4,265.5,114.9,265.5z M111.2,250.9h27.3
	c3.7,0.2,6.8-2.7,7-6.4c0-0.5,0-1.1-0.1-1.6c-1.9-11.4-3.9-22.7-5.9-34c-1.2-6.7-5.2-9.9-12.1-9.9H75.7c-5.3,0.2-8.3,3.6-7.4,8.8
	l6,34.1c1,5.6,5.1,9,10.8,9.1L111.2,250.9z"/>
<polyline points="180.1,96.1 220.6,22.7 235.5,92.6 "/>
<polyline points="234.8,92.9 280.3,0 291.8,99.1 "/>
<g class="st0">
	<path d="M399.4,256.6c-8.7-4.7-15.4-11.1-20.4-19.4c-4.9-8.2-7.4-17.6-7.4-28c0-10.4,2.5-19.7,7.4-28c5-8.2,11.7-14.7,20.4-19.4
		c8.6-4.6,18.4-7,29.2-7c9.1,0,17.3,1.6,24.7,4.8c7.4,3.2,13.5,7.8,18.5,13.8L456.2,188c-7.1-8.2-15.9-12.3-26.4-12.3
		c-6.5,0-12.3,1.4-17.4,4.3c-5.1,2.9-9.1,6.8-11.9,11.9c-2.9,5.1-4.3,10.9-4.3,17.4c0,6.5,1.4,12.3,4.3,17.4
		c2.9,5.1,6.8,9.1,11.9,11.9c5.1,2.8,10.9,4.3,17.4,4.3c10.5,0,19.3-4.1,26.4-12.4l15.6,14.4c-5,6.1-11.2,10.8-18.6,14
		c-7.4,3.2-15.7,4.8-24.8,4.8C417.7,263.6,408,261.3,399.4,256.6z"/>
</g>
<g class="st0">
	<path d="M556.2,239.3h-48.8l-9.3,22.5h-24.9l46.8-105h24l46.9,105h-25.5L556.2,239.3z M548.6,220.8l-16.7-40.2l-16.6,40.2H548.6z"
		/>
	<path d="M697.5,261.8l-0.2-63l-30.9,51.9h-11l-30.8-50.6v61.7h-22.8v-105H622l39.3,65.2l38.7-65.2h20l0.3,105H697.5z"/>
	<path d="M745.2,156.8h47.7c11.4,0,21.5,2.2,30.2,6.5c8.7,4.3,15.5,10.5,20.4,18.4c4.8,7.9,7.3,17.1,7.3,27.6s-2.4,19.7-7.3,27.6
		c-4.9,7.9-11.7,14-20.4,18.4c-8.8,4.4-18.8,6.5-30.2,6.5h-47.7V156.8z M791.7,241.8c10.5,0,18.9-2.9,25.1-8.8
		c6.2-5.9,9.4-13.8,9.4-23.8c0-10-3.1-17.9-9.4-23.8c-6.3-5.8-14.6-8.8-25.1-8.8h-22.2v65.1H791.7z"/>
	<path d="M890.5,256.5c-8.8-4.7-15.6-11.2-20.5-19.4c-5-8.2-7.4-17.5-7.4-27.8c0-10.3,2.5-19.6,7.4-27.8
		c4.9-8.2,11.8-14.7,20.5-19.4c8.7-4.7,18.6-7,29.5-7c10.9,0,20.7,2.4,29.4,7c8.7,4.7,15.5,11.2,20.5,19.4c5,8.2,7.5,17.5,7.5,27.8
		c0,10.3-2.5,19.6-7.5,27.8c-5,8.2-11.8,14.7-20.5,19.4c-8.7,4.7-18.5,7-29.4,7C909,263.6,899.2,261.3,890.5,256.5z M936.7,238.6
		c5-2.9,8.9-6.8,11.8-11.9c2.8-5.1,4.3-10.9,4.3-17.4c0-6.5-1.4-12.3-4.3-17.4c-2.8-5.1-6.8-9.1-11.8-11.9c-5-2.8-10.6-4.3-16.8-4.3
		c-6.2,0-11.8,1.4-16.8,4.3c-5,2.9-8.9,6.8-11.8,11.9c-2.8,5.1-4.3,10.9-4.3,17.4c0,6.5,1.4,12.3,4.3,17.4
		c2.9,5.1,6.8,9.1,11.8,11.9c5,2.8,10.6,4.3,16.8,4.3C926.1,242.9,931.7,241.5,936.7,238.6z"/>
</g>
<g class="st0">
	<path d="M1069.8,207.6h22.2v42.6c-5.7,4.3-12.3,7.6-19.8,9.9c-7.5,2.3-15.1,3.5-22.7,3.5c-10.9,0-20.7-2.3-29.4-7
		c-8.7-4.7-15.5-11.1-20.5-19.4c-4.9-8.2-7.4-17.6-7.4-28c0-10.4,2.5-19.7,7.4-28c5-8.2,11.8-14.7,20.6-19.4c8.8-4.6,18.7-7,29.7-7
		c9.2,0,17.5,1.6,25,4.6c7.5,3.1,13.8,7.6,18.9,13.5l-15.6,14.4c-7.5-7.9-16.6-11.8-27.2-11.8c-6.7,0-12.7,1.4-17.8,4.2
		c-5.2,2.8-9.3,6.8-12.2,11.9c-2.9,5.1-4.3,11-4.3,17.5c0,6.5,1.4,12.3,4.3,17.4c2.9,5.1,6.9,9.1,12.1,11.9c5.1,2.8,11,4.3,17.6,4.3
		c7,0,13.3-1.5,18.9-4.5V207.6z"/>
</g>
<g class="st0">
	<path d="M1112.7,258.8c-2.8-2.8-4.2-6.3-4.2-10.5c0-4.3,1.4-7.8,4.2-10.4c2.8-2.6,6.2-4,10.3-4c4.1,0,7.5,1.3,10.4,4
		c2.8,2.7,4.2,6.1,4.2,10.4c0,4.2-1.4,7.7-4.2,10.5c-2.8,2.8-6.3,4.2-10.4,4.2C1118.9,263,1115.5,261.6,1112.7,258.8z"/>
</g>
<g class="st0">
	<path class="st1" d="M1232.1,239.3h-48.8l-9.3,22.5h-24.9l46.8-105h24l47,105h-25.5L1232.1,239.3z M1224.5,220.8l-16.7-40.2
		l-16.6,40.2H1224.5z"/>
	<path class="st1" d="M1277.8,156.8h24.3v105h-24.3V156.8z"/>
</g>
</svg>
