<svg width="54" height="57" viewBox="0 0 54 57" fill="none" xmlns="http://www.w3.org/2000/svg">
<path d="M30.9217 44.1899C30.6837 43.22 30.4626 42.2671 30.2076 41.2972C29.5954 38.7789 28.7793 36.3286 27.7931 33.9294C27.453 33.1126 27.0109 32.364 26.2288 31.8535C25.5826 31.4451 24.8175 31.2069 24.0523 31.2069C21.5188 31.1048 18.9683 31.1048 16.4348 31.0537L4.17535 30.8495C3.69926 30.8325 3.22316 30.8666 2.74707 30.9176C2.04993 31.0027 1.67585 31.4791 1.79488 32.1938C1.9139 32.7553 2.10094 33.2828 2.32198 33.8103L5.17855 41.2632C5.28057 41.5184 5.34859 41.5865 5.60364 41.4163C6.33478 40.9229 7.09994 40.4634 7.86509 40.021C8.05213 39.936 8.13714 39.7318 8.08613 39.5446C7.61004 37.0263 7.13394 34.5079 6.67485 31.9896C6.64084 31.8705 6.50482 31.6323 6.75987 31.6153C7.01492 31.5982 7.28697 31.4451 7.37199 31.8705C7.9161 34.8142 8.47721 37.7409 9.03832 40.6847C9.27637 41.8758 9.48041 43.0669 9.71846 44.258C9.95651 45.4491 10.5176 45.9085 11.7249 46.1127C12.0989 46.1637 12.473 46.1807 12.8471 46.1807H24.9195C26.3138 46.1807 27.7251 46.1297 29.1193 46.1467C30.5136 46.1637 31.1938 45.6022 32.0099 44.8535L47.194 30.9006C47.347 30.7645 47.415 30.5603 47.415 30.3561C47.5 29.182 47.585 28.0079 47.653 26.8338C47.6701 26.6637 47.6531 26.5105 47.7891 26.3914C48.9113 25.2344 50.0335 24.0603 51.2068 22.8692C51.4958 23.6519 51.7169 24.4346 51.8869 25.2514C52.0229 25.8469 52.1249 26.4255 52.0059 27.021C51.8529 27.7527 51.4788 28.4333 50.9517 28.9608C48.8603 31.2579 46.7859 33.5891 44.5754 35.7841C44.3204 36.0053 44.1674 36.3286 44.1674 36.6689C44.2014 37.4687 43.8613 38.0302 43.2662 38.5407C42.6711 39.0511 42.0249 39.7488 41.4298 40.3614C41.2768 40.5485 41.0217 40.6166 40.7837 40.5655L39.1684 40.3103C38.9813 40.2593 38.7773 40.3103 38.6412 40.4464C36.6859 42.165 34.7135 43.8836 32.8261 45.6703C31.9589 46.5211 30.7857 46.9975 29.5614 46.9805C23.7803 46.9975 17.9991 46.9635 12.218 46.9465C11.8609 46.9294 11.5208 46.8784 11.1808 46.7933C9.99051 46.487 9.27637 45.7213 9.03832 44.5132C8.80028 43.3051 8.59624 42.3012 8.37519 41.1441L7.04893 42.0289C6.52182 42.3692 5.99472 42.6925 5.48461 43.0498C5.33158 43.1519 5.24657 43.186 5.16155 42.9478L1.23376 32.6192C0.978712 31.9045 0.825681 31.1899 1.30178 30.4922C1.52282 30.1349 1.84589 29.8626 2.21996 29.6755L6.55583 27.7016C6.74287 27.6506 6.94691 27.6336 7.13394 27.6506C10.2796 27.7016 13.4422 27.7357 16.5878 27.8037C20.0565 27.8718 23.5422 27.8718 27.0109 27.9909C28.8133 28.059 30.0715 28.8417 30.8027 30.5092C31.7209 32.6192 32.367 34.7972 32.9791 36.9922L33.5572 39.0682L44.0823 29.8797L44.0313 29.8116L33.8633 37.843C33.6082 36.9582 33.3702 36.1074 33.1321 35.2566C32.622 33.47 32.0099 31.7174 31.2958 29.9988C30.8367 28.8757 30.1395 28.0079 28.9833 27.5655C28.2862 27.3103 27.555 27.2933 26.8239 27.2762L19.7845 27.1741L8.51122 26.987C8.4262 26.987 8.35819 26.9529 8.29017 26.9019L9.66745 26.2723L30.8027 16.6414C31.7889 16.199 32.8601 15.9778 33.9483 15.9608C38.5222 15.8246 43.1131 15.6885 47.6871 15.7225C48.2312 15.7225 48.7583 15.7906 49.2854 15.9097C49.9315 16.0458 50.4586 16.4712 50.7307 17.0668C51.2238 18.0367 51.4788 19.0746 51.7509 20.1126C51.8529 20.504 51.7679 20.7592 51.4618 21.0485C48.4012 23.788 45.3746 26.5446 42.331 29.2841C42.246 29.3522 42.195 29.4372 42.161 29.5393L46.7859 25.983C46.7179 26.7998 46.6669 27.5315 46.5988 28.2632C46.5988 28.3142 46.5648 28.3823 46.5818 28.4333C46.6839 29.3181 46.2078 29.8796 45.5956 30.4412C40.8007 34.9333 36.0227 39.4425 31.2448 43.9517C31.1597 44.0538 31.0577 44.1389 30.9217 44.1899ZM32.486 27.3443L32.537 27.4124L47.9421 16.4712L47.7551 16.4372C43.3682 16.4372 38.9813 16.4202 34.5944 16.5393C33.4212 16.5733 32.265 16.6924 31.1768 17.2029L14.9215 24.7069C14.7685 24.7409 14.6324 24.826 14.5304 24.9451L14.8875 24.809C17.268 23.8391 19.6314 22.8862 21.9949 21.8993C22.182 21.8142 22.386 21.8312 22.573 21.9163C23.7293 22.3757 25.0215 22.3757 26.1948 21.9333C28.5582 21.0315 30.9387 20.1807 33.4042 19.6362C34.6965 19.3469 35.9887 19.2278 37.264 19.8063C38.5392 20.3849 39.3384 20.8103 40.5796 20.6741L32.486 27.3443Z" fill="white"/>
<path d="M38.8962 41.3143V45.33L42.1949 44.0708L50.0505 41.0761C50.2715 41.025 50.4415 40.8378 50.4756 40.6166C51.1897 37.758 51.2407 34.7802 50.6286 31.9046C50.5436 31.4962 50.5436 31.4962 50.2035 31.7514C49.2513 32.4491 48.2991 33.1467 47.2959 33.7933L51.7508 28.8758C54.9815 37.3156 52.1589 49.4138 41.2257 54.8248C31.1257 59.8104 19.7504 55.7266 14.5474 47.6441H16.7918C16.9448 47.6441 16.9959 47.7462 17.0639 47.8483C19.9374 51.3706 23.5932 53.6677 28.0481 54.6036C32.503 55.5395 36.4818 54.9609 40.4265 53.0551L40.5796 52.9531C40.4776 52.902 40.3585 52.885 40.2565 52.902H34.1693C33.5572 52.902 32.962 52.6638 32.503 52.2384C31.8568 51.6769 31.2957 51.0133 30.6836 50.4007C30.5986 50.3156 30.5646 50.1965 30.5816 50.0774C30.5816 49.3457 30.5986 48.6311 30.5816 47.9164C30.5816 47.6952 30.6666 47.6271 30.8536 47.5761C31.7888 47.3889 32.554 46.8954 33.2341 46.2488C35.0195 44.5643 36.8728 42.9478 38.7262 41.3313C38.7602 41.2802 38.8452 41.2632 38.8962 41.3143Z" fill="white"/>
<path d="M20.5327 45.1768C18.1182 45.1768 15.6867 45.1257 13.2722 45.1768C11.963 45.2108 10.5857 44.1558 10.3476 42.6925C9.82052 39.5786 9.25941 36.4817 8.6983 33.3679C8.6813 33.2998 8.6813 33.2147 8.6813 33.1466C8.59628 32.1597 8.66429 32.0747 9.63349 32.0747H22.6071C23.2022 32.0576 23.7973 32.1257 24.3754 32.2618C25.3446 32.5 26.1268 33.1977 26.4839 34.1336C27.368 36.1925 27.9972 38.3535 28.5923 40.5145C28.9153 41.6715 29.2044 42.8456 29.5275 44.0027C29.6125 44.2409 29.5275 44.5302 29.3064 44.6663C28.9324 44.9896 28.4393 45.1768 27.9291 45.1598C25.4637 45.1598 22.9982 45.1768 20.5327 45.1768ZM19.9035 42.6925H24.5455C25.1746 42.7265 25.7017 42.2331 25.7357 41.6035C25.7357 41.5184 25.7357 41.4163 25.7187 41.3312C25.3956 39.3914 25.0556 37.4686 24.7155 35.5459C24.5115 34.4058 23.8313 33.8613 22.6581 33.8613H13.8673C12.9662 33.8953 12.4561 34.4739 12.6091 35.3587L13.6293 41.1611C13.7993 42.1139 14.4965 42.6925 15.4657 42.7095L19.9035 42.6925Z" fill="white"/>
<path d="M31.6188 16.3521L38.5052 3.86255L41.0387 15.7566" fill="white"/>
<path d="M40.9197 15.8076L48.6562 0L50.6116 16.8626" fill="white"/>
</svg>
