<svg width="21" height="23" viewBox="0 0 21 23" fill="none" xmlns="http://www.w3.org/2000/svg">
<path d="M19.9555 4.96787L11.7986 0.272246C11.1451 -0.0907487 10.3463 -0.0907487 9.71707 0.272246L1.56023 4.96787C0.90667 5.33087 0.519531 6.03291 0.519531 6.78319V16.1987C0.519531 16.9489 0.930982 17.6267 1.56023 18.014L9.71707 22.7096C10.0318 22.9033 10.3948 23 10.7578 23C11.1208 23 11.4839 22.9033 11.7985 22.7096L19.9557 17.9898C20.6093 17.6268 20.9964 16.9247 20.9964 16.1744V6.78319C20.9964 6.03291 20.585 5.33102 19.9557 4.96787H19.9555ZM10.54 1.70038C10.6126 1.65193 10.6852 1.65193 10.7578 1.65193C10.8304 1.65193 10.903 1.67607 10.9756 1.70038L18.5031 6.05715L10.7578 10.5107L3.01241 6.05715L10.54 1.70038ZM2.40738 16.5618C2.28632 16.4892 2.18958 16.344 2.18958 16.1988V7.48527L9.93494 11.9631V20.8944L2.40738 16.5618ZM19.1083 16.5618L11.5808 20.9186V11.963L19.3262 7.4852V16.1745C19.3262 16.344 19.2536 16.4651 19.1084 16.562L19.1083 16.5618Z" fill="#8E97A2"/>
</svg>
