<svg width="24" height="24" viewBox="0 0 24 24" fill="none" xmlns="http://www.w3.org/2000/svg">
<path d="M8.55286 10.1143C9.59439 11.1558 9.59439 12.8445 8.55286 13.886C7.51133 14.9275 5.82268 14.9275 4.78115 13.886C3.73962 12.8445 3.73962 11.1558 4.78115 10.1143C5.82268 9.07275 7.51133 9.07275 8.55286 10.1143" stroke="#21A28E" stroke-width="1.5" stroke-linecap="round" stroke-linejoin="round"/>
<path d="M19.2189 4.78103C20.2604 5.82256 20.2604 7.51121 19.2189 8.55274C18.1773 9.59427 16.4887 9.59427 15.4472 8.55274C14.4056 7.51121 14.4056 5.82256 15.4472 4.78103C16.4887 3.7395 18.1773 3.7395 19.2189 4.78103" stroke="#21A28E" stroke-width="1.5" stroke-linecap="round" stroke-linejoin="round"/>
<path d="M19.2189 15.4472C20.2604 16.4887 20.2604 18.1773 19.2189 19.2189C18.1773 20.2604 16.4887 20.2604 15.4472 19.2189C14.4056 18.1773 14.4056 16.4887 15.4472 15.4472C16.4887 14.4056 18.1773 14.4056 19.2189 15.4472" stroke="#21A28E" stroke-width="1.5" stroke-linecap="round" stroke-linejoin="round"/>
<path d="M9.04004 10.8102L14.96 7.85022" stroke="#21A28E" stroke-width="1.5" stroke-linecap="round" stroke-linejoin="round"/>
<path d="M9.04004 13.1899L14.96 16.1499" stroke="#21A28E" stroke-width="1.5" stroke-linecap="round" stroke-linejoin="round"/>
</svg>
