<svg width="23" height="15" viewBox="0 0 23 15" fill="none" xmlns="http://www.w3.org/2000/svg">
<path d="M11.0562 11.9993C12.3062 11.9993 13.3688 11.5619 14.2442 10.6873C15.1188 9.81193 15.5562 8.74927 15.5562 7.49927C15.5562 6.24927 15.1188 5.1866 14.2442 4.31127C13.3688 3.4366 12.3062 2.99927 11.0562 2.99927C9.80615 2.99927 8.74349 3.4366 7.86815 4.31127C6.99349 5.1866 6.55615 6.24927 6.55615 7.49927C6.55615 8.74927 6.99349 9.81193 7.86815 10.6873C8.74349 11.5619 9.80615 11.9993 11.0562 11.9993ZM11.0562 10.1993C10.3062 10.1993 9.66882 9.9366 9.14415 9.41127C8.61882 8.8866 8.35615 8.24927 8.35615 7.49927C8.35615 6.74927 8.61882 6.1116 9.14415 5.58627C9.66882 5.0616 10.3062 4.79927 11.0562 4.79927C11.8062 4.79927 12.4438 5.0616 12.9692 5.58627C13.4938 6.1116 13.7562 6.74927 13.7562 7.49927C13.7562 8.24927 13.4938 8.8866 12.9692 9.41127C12.4438 9.9366 11.8062 10.1993 11.0562 10.1993ZM11.0562 14.9993C8.62282 14.9993 6.40615 14.3199 4.40615 12.9613C2.40615 11.6033 0.956152 9.7826 0.0561523 7.49927C0.956152 5.21593 2.40615 3.39493 4.40615 2.03627C6.40615 0.678268 8.62282 -0.000732422 11.0562 -0.000732422C13.4895 -0.000732422 15.7062 0.678268 17.7062 2.03627C19.7062 3.39493 21.1562 5.21593 22.0562 7.49927C21.1562 9.7826 19.7062 11.6033 17.7062 12.9613C15.7062 14.3199 13.4895 14.9993 11.0562 14.9993ZM11.0562 12.9993C12.9395 12.9993 14.6688 12.5033 16.2442 11.5113C17.8188 10.5199 19.0228 9.1826 19.8562 7.49927C19.0228 5.81593 17.8188 4.47827 16.2442 3.48627C14.6688 2.49493 12.9395 1.99927 11.0562 1.99927C9.17282 1.99927 7.44349 2.49493 5.86815 3.48627C4.29349 4.47827 3.08949 5.81593 2.25615 7.49927C3.08949 9.1826 4.29349 10.5199 5.86815 11.5113C7.44349 12.5033 9.17282 12.9993 11.0562 12.9993Z" fill="white"/>
</svg>
