<svg width="23" height="21" viewBox="0 0 23 21" fill="none" xmlns="http://www.w3.org/2000/svg">
<path d="M15.1562 11.2993L13.7062 9.84932C13.8562 9.06598 13.6312 8.33265 13.0312 7.64932C12.4312 6.96598 11.6562 6.69932 10.7062 6.84932L9.25615 5.39932C9.53949 5.26598 9.82682 5.16598 10.1182 5.09932C10.4102 5.03265 10.7228 4.99932 11.0562 4.99932C12.3062 4.99932 13.3688 5.43665 14.2442 6.31132C15.1188 7.18665 15.5562 8.24932 15.5562 9.49932C15.5562 9.83265 15.5228 10.1453 15.4562 10.4373C15.3895 10.7286 15.2895 11.016 15.1562 11.2993ZM18.3562 14.4493L16.9062 13.0493C17.5395 12.566 18.1022 12.0366 18.5942 11.4613C19.0855 10.8866 19.5062 10.2326 19.8562 9.49932C19.0228 7.81598 17.8268 6.47832 16.2682 5.48632C14.7102 4.49498 12.9728 3.99932 11.0562 3.99932C10.5728 3.99932 10.0978 4.03265 9.63115 4.09932C9.16449 4.16598 8.70615 4.26598 8.25615 4.39932L6.70615 2.84932C7.38949 2.56598 8.08949 2.35332 8.80615 2.21132C9.52282 2.06998 10.2728 1.99932 11.0562 1.99932C13.5728 1.99932 15.8145 2.69498 17.7812 4.08632C19.7478 5.47832 21.1728 7.28265 22.0562 9.49932C21.6728 10.4826 21.1688 11.3953 20.5442 12.2373C19.9188 13.0786 19.1895 13.816 18.3562 14.4493ZM18.8562 20.5993L14.6562 16.4493C14.0728 16.6327 13.4855 16.7703 12.8942 16.8623C12.3022 16.9537 11.6895 16.9993 11.0562 16.9993C8.53949 16.9993 6.29782 16.3036 4.33115 14.9123C2.36449 13.5203 0.939486 11.716 0.0561523 9.49932C0.406152 8.61598 0.847819 7.79498 1.38115 7.03632C1.91449 6.27832 2.52282 5.59932 3.20615 4.99932L0.456152 2.19932L1.85615 0.799316L20.2562 19.1993L18.8562 20.5993ZM4.60615 6.39932C4.12282 6.83265 3.68115 7.30765 3.28115 7.82432C2.88115 8.34098 2.53949 8.89932 2.25615 9.49932C3.08949 11.1826 4.28515 12.52 5.84315 13.5113C7.40182 14.5033 9.13949 14.9993 11.0562 14.9993C11.3895 14.9993 11.7145 14.9786 12.0312 14.9373C12.3478 14.8953 12.6728 14.8493 13.0062 14.7993L12.1062 13.8493C11.9228 13.8993 11.7478 13.9366 11.5812 13.9613C11.4145 13.9866 11.2395 13.9993 11.0562 13.9993C9.80615 13.9993 8.74349 13.562 7.86815 12.6873C6.99349 11.812 6.55615 10.7493 6.55615 9.49932C6.55615 9.31598 6.56849 9.14098 6.59315 8.97432C6.61849 8.80765 6.65615 8.63265 6.70615 8.44932L4.60615 6.39932Z" fill="white"/>
</svg>
